<svg xmlns="http://www.w3.org/2000/svg" viewBox="0 0 74 27" enable-background="new 0 0 74 27"><style type="text/css">.st0{fill:#1F1F1F;} .st1{fill:#8E8E8E;}</style><path class="st0" d="M20.3 11.3h-4v-11h4.2c3.7 0 5.8 2.9 5.8 5.5 0 2.4-1.8 5.5-6 5.5zm.1-8.8h-1.8v6.6h1.5c2.2 0 3.7-1.5 3.7-3.3 0-1.7-1.2-3.3-3.4-3.3zM34.5 11.3l-2.9-4.1h-.9v4.1h-2.3v-11h3.6c3 0 3.6 2.3 3.6 3.4 0 1.4-.8 2.3-1.7 2.8l3.5 4.7h-2.9zm-2.7-8.8h-1v2.6h1c1.1 0 1.5-.6 1.5-1.3 0-.8-.6-1.3-1.5-1.3zM45.9 11.3l-.8-2.3h-4.1l-.8 2.2h-2.5l4.2-10.9h2.2l4.3 10.9h-2.5zm-2.9-7.9l-1.3 3.6h2.6l-1.3-3.6zM55.4 11.5c-3.2 0-6-2.5-6-5.7s2.7-5.7 6.1-5.7c1.2 0 2.8.3 3.7.8v2.6c-1.1-.6-2.5-1.1-3.7-1.1-2.2 0-3.7 1.7-3.7 3.5 0 2.1 1.7 3.6 3.7 3.6.4 0 .8 0 1.4-.2v-2.2h-1.8v-2.2h4.2v5.8c-1.2.5-2.5.8-3.9.8z"/><path class="st1" d="M61.3 3.6v6c5.3 1.5 9.3 3.4 11.2 5.6.8-1 1.3-2 1.3-3 0-3.4-4.9-6.5-12.5-8.6zM14.3 3.2c-8.5 2.1-14 5.4-14 9 0 1 .4 2 1.3 3 2.1-2.4 6.6-4.5 12.7-6v-6z"/><path class="st0" d="M72.5 9.4c-3.8 4.3-15.5 8.1-30.5 8.7v6c18-.8 31.6-5.6 31.6-11.4 0-1-.3-2.4-1.1-3.3zM30 18c-14-.8-25.1-4.4-28.7-8.6-.8 1-1.2 2.4-1.2 3.4 0 5.6 12.9 10.3 29.9 11.3v2.6l8-5.7-8-5.7v2.7z"/></svg>