<svg xmlns="http://www.w3.org/2000/svg" viewBox="0 0 74 40" enable-background="new 0 0 74 40"><style type="text/css">.st0{fill:#8E8E8E;} .st1{fill:#1F1F1F;}</style><path class="st0" d="M35 15.1c-16.4 4.2-29.4 11.2-32.2 17-1-.7-1.7-1.6-2-2.6-1.6-6.2 13.1-15.2 32.7-20.3s36.9-4.2 38.5 2c.3 1 .1 2.1-.5 3.2-5.3-3.6-20-3.6-36.5.7z"/><path class="st1" d="M70.1 8.7c-2.6 5.2-13.2 11.8-27.2 16l1.5 5.8c17.1-5.2 29.1-13.2 27.7-18.9-.2-.9-.9-2.1-2-2.9zM31.3 27.7c-13.7 2.7-25.5 1.9-30.1-1.3-.5 1.2-.5 2.6-.3 3.6 1.4 5.5 15.1 6.8 31.9 3.5l.6 2.5 6.3-7.5-9.1-3.5.7 2.7z"/></svg>